<?xml version="1.0" standalone="no"?>
<!DOCTYPE svg PUBLIC "-//W3C//DTD SVG 20010904//EN"
 "http://www.w3.org/TR/2001/REC-SVG-20010904/DTD/svg10.dtd">
<svg version="1.0" xmlns="http://www.w3.org/2000/svg"
 width="256.000000pt" height="85.000000pt" viewBox="0 0 256.000000 85.000000"
 preserveAspectRatio="xMidYMid meet">

<g transform="translate(0.000000,85.000000) scale(0.100000,-0.100000)"
fill="#000000" stroke="none">
<path d="M650 490 c13 -25 36 -26 49 -2 8 16 5 18 -25 20 -32 3 -34 1 -24 -18z"/>
<path d="M922 426 l3 -80 57 -4 c52 -3 59 -1 74 23 13 20 14 28 4 40 -15 18
-30 11 -30 -15 0 -14 -9 -19 -40 -22 -38 -3 -40 -2 -40 24 0 26 3 28 45 28 53
0 75 26 56 66 -9 20 -18 24 -51 24 -22 0 -40 -4 -40 -10 0 -5 12 -10 26 -10
14 0 32 -6 40 -14 12 -13 12 -17 -2 -30 -8 -9 -29 -16 -45 -16 -30 0 -33 7
-30 56 1 13 -4 21 -14 21 -13 0 -15 -13 -13 -81z"/>
<path d="M1151 497 c-9 -12 -61 -140 -61 -152 0 -15 29 -2 33 15 4 16 14 20
50 20 36 0 46 -4 50 -20 3 -11 12 -20 20 -20 13 0 10 15 -16 76 -33 79 -56
104 -76 81z m37 -52 c16 -35 16 -35 -18 -35 -16 0 -30 2 -30 5 0 11 24 55 30
55 4 0 12 -11 18 -25z"/>
<path d="M1240 503 c1 -5 14 -24 30 -43 23 -26 30 -44 30 -77 0 -36 3 -43 20
-43 17 0 20 7 20 41 0 31 8 51 30 79 33 42 36 50 18 50 -7 0 -22 -14 -33 -30
-11 -16 -27 -30 -35 -30 -8 0 -24 14 -35 30 -18 27 -46 41 -45 23z"/>
<path d="M1450 502 c-11 -5 -15 -25 -15 -79 0 -63 2 -73 18 -73 13 0 17 9 17
40 0 25 -5 40 -12 40 -10 0 -10 2 0 9 8 4 13 14 12 22 -5 33 0 36 41 29 48 -9
62 -20 53 -43 -4 -12 -18 -17 -45 -17 -21 0 -39 -4 -39 -9 0 -5 11 -8 24 -7
17 2 26 -3 30 -17 5 -19 7 -18 35 12 35 37 40 71 14 87 -20 12 -110 16 -133 6z"/>
<path d="M1672 503 c-24 -9 -44 -64 -37 -100 9 -47 29 -37 33 18 4 53 16 69
53 69 31 0 59 -31 59 -65 0 -50 -65 -86 -97 -54 -8 8 -13 8 -18 -1 -10 -17 -1
-22 49 -27 38 -5 48 -2 70 20 35 35 36 94 3 125 -22 21 -81 29 -115 15z"/>
<path d="M1857 503 c-4 -3 -7 -35 -7 -69 0 -72 6 -78 83 -86 35 -4 47 -2 47 8
0 8 -16 14 -47 16 l-48 3 -3 60 c-3 59 -12 82 -25 68z"/>
<path d="M580 439 c0 -51 4 -65 22 -80 32 -29 48 -24 48 14 0 28 -51 127 -66
127 -2 0 -4 -28 -4 -61z"/>
<path d="M743 466 c-32 -36 -43 -61 -43 -95 0 -24 4 -31 19 -31 37 0 52 28 49
91 -1 33 -3 59 -4 59 0 0 -10 -11 -21 -24z"/>
<path d="M1555 381 c-7 -12 17 -41 34 -41 16 0 14 8 -8 31 -12 13 -21 17 -26
10z"/>
</g>
</svg>
