<?xml version="1.0" standalone="no"?>
<!DOCTYPE svg PUBLIC "-//W3C//DTD SVG 20010904//EN"
 "http://www.w3.org/TR/2001/REC-SVG-20010904/DTD/svg10.dtd">
<svg version="1.0" xmlns="http://www.w3.org/2000/svg"
 width="256.000000pt" height="52.000000pt" viewBox="0 0 256.000000 52.000000"
 preserveAspectRatio="xMidYMid meet">

<g transform="translate(0.000000,52.000000) scale(0.100000,-0.100000)"
fill="#000000" stroke="none">
<path d="M410 380 l0 -70 60 0 60 0 0 -112 c0 -61 2 -109 5 -107 4 5 75 338
75 353 0 3 -45 6 -100 6 l-100 0 0 -70z"/>
<path d="M139 248 l-35 -178 120 0 c115 1 119 2 83 15 -90 31 -118 84 -126
230 l-6 110 -36 -177z"/>
<path d="M821 370 c-52 -12 -78 -29 -96 -65 -21 -37 -14 -93 13 -118 55 -50
152 -60 222 -24 52 26 59 40 28 54 -18 8 -30 6 -53 -8 -16 -11 -49 -19 -71
-19 -92 0 -129 86 -53 125 38 20 77 19 120 -4 34 -18 79 -19 79 -1 0 14 -39
42 -77 56 -43 15 -63 16 -112 4z"/>
<path d="M1100 260 l0 -110 125 0 c118 0 125 1 125 20 0 19 -7 20 -95 20 -95
0 -95 0 -95 25 0 24 3 25 60 25 53 0 60 2 60 20 0 18 -7 20 -60 20 -53 0 -60
2 -60 20 0 19 7 20 90 20 89 0 90 0 90 25 l0 25 -120 0 -120 0 0 -110z"/>
<path d="M1440 260 l0 -110 30 0 c27 0 30 3 30 34 l0 34 89 4 c70 2 93 7 110
22 31 28 28 79 -5 105 -23 18 -41 21 -140 21 l-114 0 0 -110z m217 44 c11 -29
-26 -45 -92 -42 -57 3 -60 4 -63 31 l-3 27 76 0 c61 0 77 -3 82 -16z"/>
<path d="M1800 260 l0 -110 125 0 c118 0 125 1 125 20 0 19 -7 20 -95 20 -95
0 -95 0 -95 25 0 24 3 25 60 25 53 0 60 2 60 20 0 18 -7 20 -60 20 -53 0 -60
2 -60 20 0 19 7 20 90 20 89 0 90 0 90 25 l0 25 -120 0 -120 0 0 -110z"/>
<path d="M2185 315 l60 -55 -60 -55 -60 -54 39 -1 c30 0 49 8 83 36 49 40 39
42 107 -18 12 -11 36 -18 60 -18 l41 0 -60 55 -60 55 60 55 60 55 -38 0 c-30
0 -49 -8 -83 -36 l-44 -36 -44 36 c-34 28 -53 36 -83 36 l-38 -1 60 -54z"/>
</g>
</svg>
