<svg viewBox="0 0 95.481827 6.858044" fill="currentColor" height="25.920167" width="360.876197" xmlns="http://www.w3.org/2000/svg">
  <path transform="matrix(.2645833 0 0 .2645833 -21.149737 -28.702989)" aria-label="RENOLIT" d="M80.836016 134.04374q-.396 0-.648-.252-.252-.288-.252-.648v-23.4q0-.396.252-.648t.648-.252h9.792q4.68 0 7.344 2.16 2.664004 2.124 2.664004 6.048 0 2.556-1.224004 4.32-1.224 1.764-3.24 2.664l4.932004 8.856q.108.216.108.396 0 .288-.252.54-.216.216-.504.216h-4.788004q-.684 0-1.008-.324-.324-.36-.468-.648l-4.104-7.92h-3.672v7.992q0 .36-.288.648-.252.252-.648.252zm5.58-14.004h4.14q1.692 0 2.52-.828.864-.828.864-2.232 0-1.404-.828-2.268-.792-.864-2.556-.864h-4.14zm19.296004 14.004q-.396 0-.648-.252-.252-.288-.252-.648v-23.4q0-.396.252-.648t.648-.252h16.812q.396 0 .648.252t.252.648v3.384q0 .396-.252.648t-.648.252h-11.484v4.86h10.692q.396 0 .648.288.252.252.252.648v3.132q0 .36-.252.648-.252.252-.648.252h-10.692v5.004h11.772q.396 0 .648.252t.252.648v3.384q0 .36-.252.648-.252.252-.648.252zm23.00399 0q-.396 0-.648-.252-.252-.288-.252-.648v-23.4q0-.396.252-.648t.648-.252h3.816q.612 0 .864.288.288.252.36.396l8.784 13.824v-13.608q0-.396.252-.648t.648-.252h4.32q.396 0 .648.252t.252.648v23.364q0 .396-.252.684-.252.252-.648.252h-3.852q-.576 0-.864-.288-.252-.288-.324-.396l-8.784-13.32v13.104q0 .36-.252.648-.252.252-.648.252zm35.28.36q-3.312 0-5.76-1.08t-3.816-3.24q-1.368-2.196-1.512-5.472-.036-1.548-.036-3.096 0-1.584.036-3.132.144-3.24 1.512-5.436 1.404-2.232 3.852-3.348 2.484-1.116 5.724-1.116 3.276 0 5.724 1.116 2.448 1.116 3.852 3.348 1.404 2.196 1.512 5.436.072 1.548.072 3.132 0 1.548-.072 3.096-.108 3.276-1.512 5.472-1.368 2.16-3.816 3.24-2.448 1.08-5.76 1.08zm0-5.184q1.908 0 3.096-1.152 1.224-1.152 1.296-3.672.072-1.584.072-2.988t-.072-2.916q-.072-1.692-.648-2.736-.54-1.08-1.512-1.584t-2.232-.504q-1.224 0-2.196.504-.972.504-1.548 1.584-.576 1.044-.648 2.736-.036 1.512-.036 2.916t.036 2.988q.108 2.52 1.296 3.672 1.224 1.152 3.096 1.152zm16.23599 4.824q-.396 0-.648-.252-.252-.288-.252-.648v-23.4q0-.396.252-.648t.648-.252h4.752q.396 0 .648.252t.252.648v18.864h10.908q.396 0 .648.288.252.252.252.648v3.6q0 .36-.252.648-.252.252-.648.252zm21.49201 0q-.396 0-.648-.252-.252-.288-.252-.648v-23.4q0-.396.252-.648t.648-.252h4.824q.396 0 .648.252.288.252.288.648v23.4q0 .36-.288.648-.252.252-.648.252zm17.20798 0q-.396 0-.648-.252-.252-.288-.252-.648v-18.648h-6.408q-.396 0-.648-.252-.252-.288-.252-.648v-3.852q0-.396.252-.648t.648-.252h19.368q.396 0 .648.252t.252.648v3.852q0 .36-.252.648-.252.252-.648.252h-6.408v18.648q0 .36-.252.648-.252.252-.648.252z"></path>
  <path transform="matrix(.2645833 0 0 .2645833 8.65104 -71.650709)" aria-label="ALKORPLAN" d="M127.55133 296.366q-.288 0-.504-.216-.216-.216-.216-.504 0-.18.036-.396l8.928-23.292q.144-.36.396-.576.252-.216.756-.216h2.448q.504 0 .756.216t.396.576l8.892 23.292q.072.216.072.396 0 .288-.216.504-.216.216-.504.216h-1.836q-.432 0-.648-.216-.18-.216-.252-.396l-1.98-5.112h-11.808l-1.98 5.112q-.036.18-.252.396-.216.216-.648.216zm5.76-8.82h9.72l-4.86-12.78zm20.88 8.82q-.396 0-.612-.216-.216-.252-.216-.612v-23.544q0-.36.216-.576.216-.252.612-.252h1.908q.36 0 .576.252.252.216.252.576v21.24h11.952q.396 0 .612.252.252.216.252.612v1.44q0 .36-.252.612-.216.216-.612.216zm20.26799 0q-.396 0-.612-.216-.216-.252-.216-.612V272.03q0-.396.216-.612.216-.252.612-.252h1.8q.396 0 .612.252.252.216.252.612v8.928l9.612-9.216q.144-.144.468-.36.36-.216.936-.216h1.944q.288 0 .504.216.216.216.216.504 0 .288-.144.468l-11.124 10.872 11.844 11.916q.18.216.18.504 0 .288-.216.504-.216.216-.504.216h-2.016q-.612 0-.936-.216-.324-.252-.468-.396l-10.296-10.116v9.9q0 .36-.252.612-.216.216-.612.216zm28.58402.36q-3.096 0-5.292-1.044-2.196-1.08-3.384-3.276-1.188-2.232-1.332-5.58-.036-1.584-.036-3.024 0-1.476.036-3.06.144-3.312 1.368-5.508 1.26-2.232 3.456-3.312 2.232-1.116 5.184-1.116 2.916 0 5.112 1.116 2.232 1.08 3.492 3.312 1.26 2.196 1.368 5.508.072 1.584.072 3.06 0 1.44-.072 3.024-.108 3.348-1.332 5.58-1.188 2.196-3.384 3.276-2.196 1.044-5.256 1.044zm0-3.06q2.736 0 4.464-1.656 1.764-1.656 1.908-5.364.072-1.62.072-2.88 0-1.296-.072-2.88-.072-2.484-.936-4.032-.828-1.548-2.232-2.268-1.404-.72-3.204-.72-1.8 0-3.204.72-1.404.72-2.268 2.268-.828 1.548-.936 4.032-.036 1.584-.036 2.88 0 1.26.036 2.88.144 3.708 1.908 5.364 1.764 1.656 4.5 1.656zm16.128 2.7q-.396 0-.612-.216-.216-.252-.216-.612V272.03q0-.396.216-.612.216-.252.612-.252h8.784q4.068 0 6.444 1.908 2.376 1.908 2.376 5.652 0 2.772-1.404 4.536-1.368 1.728-3.744 2.412l5.544 9.576q.108.216.108.396 0 .288-.252.504-.216.216-.504.216h-1.728q-.612 0-.9-.324-.288-.324-.504-.648l-5.22-9.144h-6.3v9.288q0 .36-.252.612-.216.216-.612.216zm2.7-13.176h5.94q2.7 0 4.032-1.116 1.332-1.152 1.332-3.384 0-2.196-1.332-3.348-1.296-1.152-4.032-1.152h-5.94zm20.88003 13.176q-.396 0-.612-.216-.216-.252-.216-.612V272.03q0-.396.216-.612.216-.252.612-.252h9.144q2.664 0 4.608.864 1.98.864 3.06 2.592 1.08 1.692 1.08 4.248t-1.08 4.248q-1.08 1.692-3.06 2.556-1.944.864-4.608.864h-6.372v9q0 .36-.252.612-.216.216-.612.216zm2.736-12.852h6.228q2.664 0 3.996-1.188 1.332-1.188 1.332-3.456 0-2.232-1.296-3.456-1.296-1.224-4.032-1.224h-6.228zm20.37601 12.852q-.396 0-.612-.216-.216-.252-.216-.612v-23.544q0-.36.216-.576.216-.252.612-.252h1.908q.36 0 .576.252.252.216.252.576v21.24h11.952q.396 0 .612.252.252.216.252.612v1.44q0 .36-.252.612-.216.216-.612.216zm17.74798 0q-.288 0-.504-.216-.216-.216-.216-.504 0-.18.036-.396l8.928-23.292q.144-.36.396-.576.252-.216.756-.216h2.448q.504 0 .756.216t.396.576l8.892 23.292q.072.216.072.396 0 .288-.216.504-.216.216-.504.216h-1.836q-.432 0-.648-.216-.18-.216-.252-.396l-1.98-5.112h-11.808l-1.98 5.112q-.036.18-.252.396-.216.216-.648.216zm5.76-8.82h9.72l-4.86-12.78zm20.88001 8.82q-.396 0-.612-.216-.216-.252-.216-.612V272.03q0-.396.216-.612.216-.252.612-.252h1.656q.432 0 .648.216.216.18.252.288l11.952 18.36v-18q0-.396.216-.612.216-.252.612-.252h1.728q.396 0 .612.252.252.216.252.612v23.472q0 .36-.252.612-.216.252-.576.252h-1.728q-.396 0-.612-.216-.18-.216-.252-.288l-11.916-18.18v17.856q0 .36-.252.612-.216.216-.612.216z"></path>
</svg>
